<?xml version="1.0" encoding="UTF-8" standalone="no"?>
<!-- Created with Inkscape (http://www.inkscape.org/) -->

<svg
   xmlns:dc="http://purl.org/dc/elements/1.1/"
   xmlns:cc="http://creativecommons.org/ns#"
   xmlns:rdf="http://www.w3.org/1999/02/22-rdf-syntax-ns#"
   xmlns:svg="http://www.w3.org/2000/svg"
   xmlns="http://www.w3.org/2000/svg"
   xmlns:xlink="http://www.w3.org/1999/xlink"
   version="1.1"
   width="1790"
   height="777"
   id="svg4443">
  <defs
     id="defs4445">
    <linearGradient
       x1="-390.43625"
       y1="560.77539"
       x2="229.13516"
       y2="560.77539"
       id="linearGradient3772"
       xlink:href="#linearGradient3766"
       gradientUnits="userSpaceOnUse"
       gradientTransform="translate(-145.776,417.6)" />
    <linearGradient
       id="linearGradient3766">
      <stop
         id="stop3768"
         style="stop-color:#9a1033;stop-opacity:1"
         offset="0" />
      <stop
         id="stop3770"
         style="stop-color:#e40000;stop-opacity:1"
         offset="1" />
    </linearGradient>
    <filter
       x="-0.25"
       y="-0.25"
       width="1.5"
       height="1.5"
       color-interpolation-filters="sRGB"
       id="filter4188">
      <feGaussianBlur
         id="feGaussianBlur4190"
         in="SourceAlpha"
         stdDeviation="50"
         result="blur" />
      <feColorMatrix
         id="feColorMatrix4192"
         result="bluralpha"
         type="matrix"
         values="1 0 0 0 0 0 1 0 0 0 0 0 1 0 0 0 0 0 0.4 0 " />
      <feOffset
         id="feOffset4194"
         in="bluralpha"
         dx="-50"
         dy="0"
         result="offsetBlur" />
      <feMerge
         id="feMerge4196">
        <feMergeNode
           id="feMergeNode4198"
           in="offsetBlur" />
        <feMergeNode
           id="feMergeNode4200"
           in="SourceGraphic" />
      </feMerge>
    </filter>
    <linearGradient
       x1="-390.43625"
       y1="560.77539"
       x2="229.13516"
       y2="560.77539"
       id="linearGradient4582"
       xlink:href="#linearGradient3766"
       gradientUnits="userSpaceOnUse"
       gradientTransform="translate(-145.776,417.6)" />
  </defs>
  <metadata
     id="metadata4448">
    <rdf:RDF>
      <cc:Work
         rdf:about="">
        <dc:format>image/svg+xml</dc:format>
        <dc:type
           rdf:resource="http://purl.org/dc/dcmitype/StillImage" />
        <dc:title></dc:title>
      </cc:Work>
    </rdf:RDF>
  </metadata>
  <g
     transform="translate(0,-275.362)"
     id="layer1">
    <g
       transform="matrix(0.99885883,0,0,0.98189526,387.52893,-193.06714)"
       id="text5339"
       style="font-size:115.53270721px;font-style:normal;font-weight:normal;line-height:125%;letter-spacing:0px;word-spacing:0px;fill:#000000;fill-opacity:1;stroke:none;font-family:Sans">
      <path
         d="m 665.96323,846.48753 -30.15365,0 0,3.23488 c 4.35643,0.21188 7.1388,0.94357 8.34713,2.19509 1.2082,1.25165 1.73771,4.17844 1.58855,8.78037 l 0,18.71606 -39.39614,0 0,-18.71606 c -0.14444,-4.60915 0.37545,-7.55038 1.55967,-8.8237 1.18416,-1.27318 3.89914,-1.99043 8.14495,-2.15176 l 0,-3.23488 -29.92259,0 0,3.23488 c 4.57792,0.15411 7.49508,0.85692 8.75149,2.10844 1.25639,1.25165 1.80516,4.20733 1.64632,8.86702 l 0,46.67461 c 0.15403,4.65978 -0.38512,7.61545 -1.61743,8.86703 -1.23235,1.25159 -4.08212,1.9544 -8.54931,2.10844 l 0,3.23487 30.38471,0 0,-3.23487 c -4.57796,-0.16126 -7.49512,-0.87851 -8.7515,-2.15177 -1.25642,-1.27324 -1.8052,-4.21447 -1.64631,-8.8237 l 0,-22.99071 39.39614,0 0,22.99071 c 0.16842,4.65978 -0.39961,7.61545 -1.70408,8.86703 -1.30461,1.25159 -4.35655,1.9544 -9.15585,2.10844 l 0,3.23487 30.96236,0 0,-3.23487 c -4.52264,-0.15404 -7.4061,-0.85686 -8.6504,-2.10845 -1.24444,-1.25158 -1.7884,-4.20725 -1.63187,-8.86702 l 0,-46.67461 c -0.15893,-4.60193 0.38984,-7.52872 1.64632,-8.78037 1.25632,-1.25152 4.17348,-1.98321 8.75149,-2.19509 z"
         id="path3240"
         style="font-family:Minion Pro;-inkscape-font-specification:Minion Pro" />
      <path
         d="m 714.21309,844.75456 c -12.28726,0.37074 -21.82339,4.45284 -28.60842,12.24631 -6.78506,7.7936 -10.22693,17.0746 -10.3256,27.84303 0.25753,11.35818 3.90158,20.55735 10.93214,27.59752 7.03053,7.04018 15.90236,10.66497 26.6155,10.87437 10.85748,-0.11553 19.93148,-3.69699 27.22205,-10.7444 7.29042,-7.04739 11.07888,-16.86753 11.36538,-29.46046 -0.32982,-11.75766 -4.0894,-21.0531 -11.27873,-27.88635 -7.18948,-6.83312 -15.83024,-10.32312 -25.92232,-10.47002 z m -2.54169,4.15913 c 7.83682,0.0314 14.40284,3.20365 19.69807,9.51688 5.29512,6.31336 8.04861,15.57992 8.26049,27.7997 -0.20706,11.07658 -2.65247,19.33705 -7.33624,24.78145 -4.68388,5.44441 -10.36416,8.15939 -17.04085,8.14495 -8.30144,-0.20699 -15.03594,-3.74994 -20.20352,-10.62887 -5.16764,-6.87891 -7.82967,-15.85182 -7.9861,-26.91878 0.22383,-10.86469 2.72219,-19.02889 7.49509,-24.49262 4.77285,-5.46359 10.4772,-8.19783 17.11306,-8.20271 z"
         id="path3242"
         style="font-family:Minion Pro;-inkscape-font-specification:Minion Pro" />
      <path
         d="m 827.33009,901.36486 c -2.78245,5.74529 -5.99806,10.14028 -9.64686,13.185 -3.64892,3.04473 -8.36644,4.58033 -14.15257,4.60681 -8.94408,-0.16607 -16.18403,-3.53092 -21.71987,-10.09454 -5.53589,-6.5636 -8.38566,-15.32952 -8.54931,-26.2978 0.0265,-9.09322 2.54407,-16.93008 7.55285,-23.5106 5.00873,-6.5804 12.34977,-10.02708 22.02314,-10.34004 6.20253,-0.0481 11.12705,1.29017 14.77356,4.01471 3.64639,2.72468 6.23139,7.12449 7.75503,13.19944 l 3.3504,-0.92425 c -0.34185,-2.99653 -0.69807,-5.84149 -1.06866,-8.53487 -0.37074,-2.69326 -0.78472,-5.62486 -1.24196,-8.79481 -1.68249,-0.38263 -4.32527,-0.97473 -7.92833,-1.7763 -3.60319,-0.80142 -7.77675,-1.2491 -12.5207,-1.34305 -13.12486,0.15653 -23.75854,3.82945 -31.90105,11.01879 -8.14256,7.18947 -12.33537,16.95667 -12.57847,29.30161 -0.0221,6.25512 1.42132,12.28128 4.33029,18.0785 2.90895,5.79725 7.41609,10.57396 13.52143,14.33014 6.10529,3.7562 13.94144,5.70026 23.50846,5.83219 4.32274,-0.0818 8.50112,-0.49582 12.53514,-1.24196 4.0339,-0.74614 6.94143,-1.33342 8.72261,-1.76185 1.08303,-2.1277 2.23834,-4.9197 3.46593,-8.37601 1.22745,-3.4563 2.26723,-6.59489 3.11935,-9.4158 z"
         id="path3244"
         style="font-family:Minion Pro;-inkscape-font-specification:Minion Pro" />
      <path
         d="m 917.33713,846.48753 -30.15365,0 0,3.23488 c 4.35643,0.21188 7.1388,0.94357 8.34713,2.19509 1.2082,1.25165 1.73772,4.17844 1.58855,8.78037 l 0,18.71606 -39.39614,0 0,-18.71606 c -0.14444,-4.60915 0.37545,-7.55038 1.55967,-8.8237 1.18416,-1.27318 3.89915,-1.99043 8.14495,-2.15176 l 0,-3.23488 -29.92259,0 0,3.23488 c 4.57792,0.15411 7.49508,0.85692 8.75149,2.10844 1.25639,1.25165 1.80516,4.20733 1.64632,8.86702 l 0,46.67461 c 0.15403,4.65978 -0.38511,7.61545 -1.61743,8.86703 -1.23235,1.25159 -4.08211,1.9544 -8.54931,2.10844 l 0,3.23487 30.38471,0 0,-3.23487 c -4.57796,-0.16126 -7.49512,-0.87851 -8.75149,-2.15177 -1.25643,-1.27324 -1.8052,-4.21447 -1.64632,-8.8237 l 0,-22.99071 39.39614,0 0,22.99071 c 0.16842,4.65978 -0.3996,7.61545 -1.70408,8.86703 -1.3046,1.25159 -4.35655,1.9544 -9.15585,2.10844 l 0,3.23487 30.96237,0 0,-3.23487 c -4.52265,-0.15404 -7.40611,-0.85686 -8.6504,-2.10845 -1.24445,-1.25158 -1.78841,-4.20725 -1.63188,-8.86702 l 0,-46.67461 c -0.15893,-4.60193 0.38984,-7.52872 1.64632,-8.78037 1.25632,-1.25152 4.17348,-1.98321 8.75149,-2.19509 z"
         id="path3246"
         style="font-family:Minion Pro;-inkscape-font-specification:Minion Pro" />
      <path
         d="m 968.82185,863.35509 c -0.45736,-3.59585 -0.84246,-6.65742 -1.15531,-9.18473 -0.31295,-2.52718 -0.58252,-4.78003 -0.80872,-6.75858 -2.19514,-0.71718 -4.50576,-1.33334 -6.93187,-1.8485 -2.4262,-0.515 -4.96788,-0.78457 -7.62507,-0.80872 -7.51196,0.16375 -13.34146,2.2048 -17.48854,6.12316 -4.1471,3.9185 -6.25072,8.73229 -6.31089,14.4414 0.33215,6.40722 2.585,11.32692 6.75858,14.75911 4.17355,3.43228 8.2749,6.09913 12.30407,8.00054 4.41664,2.20475 8.00291,4.58277 10.75885,7.13406 2.75586,2.55133 4.17593,5.91136 4.26021,10.08009 -0.0289,4.26745 -1.242,7.63229 -3.63923,10.09454 -2.39731,2.46226 -5.80548,3.71866 -10.22451,3.76921 -5.93785,-0.33937 -10.38098,-2.57779 -13.32942,-6.71526 -2.94846,-4.13744 -4.82103,-8.13771 -5.6177,-12.0008 l -3.46594,0.80872 c 0.43324,3.02068 0.95313,6.39515 1.55967,10.12343 0.60653,3.72829 1.12642,6.32293 1.55967,7.78391 0.56562,0.29605 1.31175,0.65708 2.23842,1.0831 0.92665,0.42602 2.10603,0.87371 3.53814,1.34305 1.38877,0.42603 3.03028,0.81594 4.92452,1.16976 1.89422,0.35381 4.02673,0.54155 6.39754,0.56321 7.79111,-0.15163 13.98646,-2.27452 18.58609,-6.36866 4.59954,-4.09413 6.95348,-9.2497 7.06184,-15.46674 -0.2624,-6.37826 -2.45267,-11.26907 -6.57083,-14.67246 -4.11825,-3.40332 -8.59027,-6.21458 -13.41607,-8.43378 -4.60442,-2.20708 -8.1907,-4.58029 -10.75884,-7.11961 -2.56818,-2.53923 -3.87272,-5.86556 -3.91362,-9.97901 -0.0217,-3.25407 1.00366,-6.13272 3.07602,-8.63596 2.07232,-2.50311 5.32163,-3.82209 9.74794,-3.95694 4.90523,0.18058 8.43856,1.81246 10.59999,4.89563 2.16136,3.0833 3.67289,6.5348 4.5346,10.35449 z"
         id="path3248"
         style="font-family:Minion Pro;-inkscape-font-specification:Minion Pro" />
      <path
         d="m 1047.3387,901.36486 c -2.7825,5.74529 -5.9981,10.14028 -9.6469,13.185 -3.6489,3.04473 -8.3664,4.58033 -14.1526,4.60681 -8.944,-0.16607 -16.184,-3.53092 -21.7198,-10.09454 -5.53593,-6.5636 -8.38569,-15.32952 -8.54935,-26.2978 0.0265,-9.09322 2.54408,-16.93008 7.55285,-23.5106 5.0087,-6.5804 12.3498,-10.02708 22.0231,-10.34004 6.2026,-0.0481 11.1271,1.29017 14.7736,4.01471 3.6464,2.72468 6.2314,7.12449 7.755,13.19944 l 3.3504,-0.92425 c -0.3418,-2.99653 -0.698,-5.84149 -1.0686,-8.53487 -0.3708,-2.69326 -0.7847,-5.62486 -1.242,-8.79481 -1.6825,-0.38263 -4.3253,-0.97473 -7.9283,-1.7763 -3.6032,-0.80142 -7.7768,-1.2491 -12.5207,-1.34305 -13.1249,0.15653 -23.7586,3.82945 -31.90107,11.01879 -8.14255,7.18947 -12.33537,16.95667 -12.57846,29.30161 -0.0221,6.25512 1.42131,12.28128 4.33028,18.0785 2.90895,5.79725 7.41609,10.57396 13.52143,14.33014 6.10532,3.7562 13.94142,5.70026 23.50842,5.83219 4.3228,-0.0818 8.5012,-0.49582 12.5352,-1.24196 4.0339,-0.74614 6.9414,-1.33342 8.7226,-1.76185 1.083,-2.1277 2.2383,-4.9197 3.4659,-8.37601 1.2275,-3.4563 2.2673,-6.59489 3.1194,-9.4158 z"
         id="path3250"
         style="font-family:Minion Pro;-inkscape-font-specification:Minion Pro" />
      <path
         d="m 1137.3457,846.48753 -30.1536,0 0,3.23488 c 4.3564,0.21188 7.1388,0.94357 8.3471,2.19509 1.2082,1.25165 1.7377,4.17844 1.5885,8.78037 l 0,18.71606 -39.3961,0 0,-18.71606 c -0.1444,-4.60915 0.3754,-7.55038 1.5597,-8.8237 1.1841,-1.27318 3.8991,-1.99043 8.1449,-2.15176 l 0,-3.23488 -29.9226,0 0,3.23488 c 4.5779,0.15411 7.4951,0.85692 8.7515,2.10844 1.2564,1.25165 1.8052,4.20733 1.6463,8.86702 l 0,46.67461 c 0.1541,4.65978 -0.3851,7.61545 -1.6174,8.86703 -1.2323,1.25159 -4.0821,1.9544 -8.5493,2.10844 l 0,3.23487 30.3847,0 0,-3.23487 c -4.578,-0.16126 -7.4951,-0.87851 -8.7515,-2.15177 -1.2564,-1.27324 -1.8052,-4.21447 -1.6463,-8.8237 l 0,-22.99071 39.3961,0 0,22.99071 c 0.1685,4.65978 -0.3996,7.61545 -1.704,8.86703 -1.3046,1.25159 -4.3566,1.9544 -9.1559,2.10844 l 0,3.23487 30.9624,0 0,-3.23487 c -4.5227,-0.15404 -7.4061,-0.85686 -8.6504,-2.10845 -1.2445,-1.25158 -1.7884,-4.20725 -1.6319,-8.86702 l 0,-46.67461 c -0.1589,-4.60193 0.3898,-7.52872 1.6463,-8.78037 1.2563,-1.25152 4.1735,-1.98321 8.7515,-2.19509 z"
         id="path3252"
         style="font-family:Minion Pro;-inkscape-font-specification:Minion Pro" />
      <path
         d="m 1224.2985,846.48753 -27.4964,0 0,3.23488 c 4.0195,0.24076 6.8404,0.82804 8.4627,1.76185 1.6222,0.93394 2.5368,2.50324 2.7438,4.70789 0.2358,1.69693 0.4284,3.99311 0.5777,6.88855 0.1492,2.89556 0.2262,6.95359 0.2311,12.17411 l 0,8.66484 c 0.1299,9.71668 -1.4298,17.60649 -4.6791,23.66945 -3.2493,6.06299 -8.9681,9.18715 -17.1563,9.37248 -7.1726,-0.0602 -12.5834,-2.62593 -16.2322,-7.69727 -3.6489,-5.07132 -5.4781,-12.2872 -5.4877,-21.64766 l 0,-26.22559 c -0.1493,-4.99907 0.3803,-8.17136 1.5885,-9.51689 1.2083,-1.34538 3.9907,-2.06264 8.3472,-2.15176 l 0,-3.23488 -29.8071,0 0,3.23488 c 4.3613,0.19021 7.1629,0.93635 8.4049,2.23841 1.242,1.3022 1.7907,4.44561 1.6463,9.43024 l 0,28.76727 c -0.01,6.77786 0.8184,12.40037 2.484,16.86756 1.6655,4.46722 4.2264,8.01017 7.6828,10.62887 2.5681,1.9496 5.4323,3.36485 8.5926,4.24578 3.1602,0.88092 6.4577,1.31416 9.8924,1.29972 3.863,0.0144 7.6033,-0.62098 11.2209,-1.90627 3.6176,-1.28528 6.8091,-3.30707 9.5747,-6.06538 3.242,-3.50203 5.5093,-7.76224 6.8019,-12.78064 1.2924,-5.01837 1.9134,-10.92489 1.8629,-17.7196 l 0,-9.47356 c 0.01,-5.23496 0.079,-9.29299 0.2167,-12.17411 0.1371,-2.881 0.2959,-5.06164 0.4765,-6.54195 0.1877,-2.37795 1.0542,-4.06278 2.5995,-5.05449 1.5451,-0.99158 4.029,-1.57886 7.4517,-1.76185 z"
         id="path3254"
         style="font-family:Minion Pro;-inkscape-font-specification:Minion Pro" />
      <path
         d="m 1283.8361,902.75124 c -0.8738,2.65242 -1.8125,4.9149 -2.8161,6.78746 -1.0037,1.87257 -2.0291,3.38411 -3.076,4.5346 -1.3046,1.4634 -2.9991,2.43578 -5.0834,2.91716 -2.0844,0.48138 -4.7031,0.70282 -7.8561,0.6643 -2.4406,0.0169 -4.6068,-0.0746 -6.4986,-0.27438 -1.8919,-0.19977 -3.4227,-0.60895 -4.5924,-1.22752 -1.0206,-0.51989 -1.7234,-1.5019 -2.1084,-2.94605 -0.3852,-1.44413 -0.5681,-3.69699 -0.5488,-6.75858 l 0,-45.63483 c -0.1469,-4.76559 0.4067,-7.7694 1.6607,-9.01143 1.254,-1.24189 4.0893,-1.93508 8.506,-2.07956 l 0,-3.23488 -30.1536,0 0,3.23488 c 4.5683,0.1517 7.4469,0.85933 8.6359,2.12288 1.189,1.26369 1.6993,4.25306 1.5308,8.96811 l 0,46.21249 c 0.1637,4.72475 -0.3947,7.75263 -1.6752,9.08364 -1.2805,1.33102 -4.265,2.07716 -8.9536,2.23842 l 0,3.23487 52.3356,0 c 0.5848,-2.09881 1.3213,-5.12188 2.2095,-9.0692 0.8881,-3.9473 1.538,-6.97036 1.9496,-9.0692 z"
         id="path3256"
         style="font-family:Minion Pro;-inkscape-font-specification:Minion Pro" />
      <path
         d="m 1348.4315,902.86677 c -0.8256,2.27935 -1.7451,4.36372 -2.7583,6.25312 -1.0134,1.88943 -2.0195,3.42503 -3.0183,4.60681 -1.1698,1.47784 -2.8161,2.508 -4.9389,3.09046 -2.123,0.58248 -5.329,0.86168 -9.618,0.8376 -2.8907,0.0313 -5.341,-0.0313 -7.3507,-0.18774 -2.0098,-0.15644 -3.5646,-0.5945 -4.6646,-1.31416 -1.0253,-0.65708 -1.7474,-1.7113 -2.1662,-3.16267 -0.4188,-1.45135 -0.621,-3.51647 -0.6065,-6.19536 l 0,-21.8354 10.9755,0 c 4.8185,-0.14197 7.9475,0.31534 9.3869,1.37193 1.4393,1.05667 2.4309,3.56465 2.9749,7.52397 l 3.3504,0 0,-22.06646 -3.3504,0 c -0.4694,3.74759 -1.4081,6.1593 -2.8161,7.23514 -1.4081,1.07593 -4.6285,1.55249 -9.6613,1.4297 l -10.8599,0 0,-26.34112 c -0.065,-1.61977 0.1227,-2.65474 0.5632,-3.1049 0.4404,-0.45002 1.5235,-0.64738 3.2493,-0.5921 l 8.7804,0 c 4.0821,-0.0192 7.0955,0.22151 9.0403,0.72207 1.9447,0.50071 3.283,1.37682 4.0147,2.62834 0.7461,1.16741 1.42,2.50083 2.0218,4.00027 0.6017,1.49956 1.1601,3.43952 1.6752,5.81988 l 3.3504,-0.46212 c -0.1902,-3.0904 -0.3875,-6.23863 -0.5921,-9.44468 -0.2046,-3.20592 -0.3153,-5.60319 -0.3321,-7.19182 l -51.5269,0 0,3.23488 c 4.3564,0.13726 7.1388,0.84489 8.3471,2.12288 1.2082,1.27814 1.7378,4.38303 1.5885,9.31471 l 0,45.98142 c 0.1805,4.56109 -0.4116,7.51194 -1.7763,8.85258 -1.3647,1.34065 -4.5851,2.1253 -9.6613,2.35395 l 0,3.23487 55.6861,0 c 0.58,-2.08918 1.2973,-5.10262 2.1518,-9.04032 0.8544,-3.93767 1.485,-7.00887 1.8918,-9.21361 z"
         id="path3258"
         style="font-family:Minion Pro;-inkscape-font-specification:Minion Pro" />
    </g>
    <g
       transform="matrix(1.1346471,0,0,1.1414059,316.75593,-345.48138)"
       id="text5343"
       style="font-size:71.81745911px;font-style:normal;font-weight:normal;line-height:125%;letter-spacing:0px;word-spacing:0px;fill:#666666;fill-opacity:1;stroke:none;font-family:Sans">
      <path
         d="m 625.15152,973.93128 c -0.15115,-1.7864 -0.29777,-3.65363 -0.43987,-5.60169 -0.14218,-1.94798 -0.23494,-3.59976 -0.27829,-4.95534 l -31.59928,0 0,2.01086 c 2.67366,0.0928 4.3823,0.53567 5.12591,1.3286 0.74359,0.79302 1.06976,2.67222 0.9785,5.6376 l 0,28.65479 c 0.0957,2.9684 -0.2394,4.8596 -1.00543,5.6735 -0.76605,0.8139 -2.53753,1.2688 -5.31443,1.3645 l 0,2.0109 19.5341,0 0,-2.0109 c -3.15546,-0.096 -5.15734,-0.5506 -6.00566,-1.3645 -0.84835,-0.8139 -1.21641,-2.7051 -1.10418,-5.6735 l 0,-12.99878 7.39711,0 c 3.12848,-0.0703 5.13036,0.26783 6.00565,1.01441 0.87524,0.74661 1.45875,2.32358 1.75053,4.73091 l 2.08268,0 0,-13.86059 -2.08268,0 c -0.29178,2.26374 -0.87529,3.73299 -1.75053,4.40774 -0.87529,0.6748 -2.87717,0.97703 -6.00565,0.90668 l -7.39711,0 0,-17.09233 c -0.0359,-1.00689 0.0898,-1.65024 0.37704,-1.93007 0.28725,-0.27974 0.95155,-0.40243 1.99291,-0.36806 l 5.45806,0 c 2.65269,-0.0149 4.54685,0.17659 5.68248,0.57453 1.13557,0.39803 1.97043,1.09225 2.5046,2.08268 0.45181,0.68828 0.82286,1.46629 1.11316,2.33404 0.29022,0.86782 0.58946,2.00491 0.8977,3.41128 z"
         id="path3213"
         style="font-variant:normal;font-stretch:normal;fill:#666666;font-family:Minion Pro;-inkscape-font-specification:Minion Pro" />
      <path
         d="m 679.17937,963.37425 -17.09234,0 0,2.01086 c 2.49409,0.14966 4.23864,0.51473 5.23363,1.0952 0.99492,0.58056 1.57244,1.55607 1.73258,2.92652 0.14658,1.05485 0.26627,2.4822 0.35908,4.28207 0.0927,1.79993 0.1406,4.32248 0.14363,7.56766 l 0,5.38624 c 0.0793,6.04009 -0.88727,10.94456 -2.89959,14.7134 -2.0124,3.7689 -5.54637,5.7109 -10.60192,5.8261 -4.49304,-0.037 -7.8774,-1.6323 -10.15306,-4.7847 -2.2757,-3.15248 -3.41579,-7.63802 -3.42026,-13.45667 l 0,-16.30235 c -0.0883,-3.10752 0.24984,-5.07948 1.01441,-5.91589 0.76453,-0.83632 2.48513,-1.28218 5.16181,-1.33758 l 0,-2.01086 -18.52867,0 0,2.01086 c 2.74249,0.11824 4.49302,0.58205 5.25159,1.39144 0.75855,0.80948 1.0907,2.76348 0.99645,5.86203 l 0,17.88232 c -0.006,4.21325 0.50869,7.70832 1.54406,10.4852 1.03534,2.7769 2.62727,4.9793 4.7758,6.6071 1.5964,1.2119 3.37685,2.0917 5.34135,2.6393 1.96446,0.5476 4.01422,0.8169 6.14929,0.8079 2.40283,0.01 4.7249,-0.386 6.96621,-1.1849 2.24124,-0.799 4.20422,-2.0558 5.88895,-3.7704 2.04973,-2.177 3.48007,-4.8252 4.29104,-7.94472 0.81088,-3.11952 1.19989,-6.79113 1.16702,-11.01486 l 0,-5.88896 c 0.004,-3.25415 0.0493,-5.77671 0.13466,-7.56767 0.0852,-1.79088 0.18398,-3.14642 0.29624,-4.06661 0.11665,-1.47818 0.65528,-2.5255 1.61587,-3.14197 0.9605,-0.61638 2.50455,-0.98145 4.63217,-1.0952 z m -17.52324,-10.4134 c -0.96058,0.024 -1.76851,0.37111 -2.42381,1.04134 -0.65535,0.67034 -0.99648,1.52017 -1.02338,2.54948 0.0284,0.9606 0.36653,1.76854 1.01441,2.42381 0.64781,0.65538 1.4348,0.99651 2.36097,1.02339 0.99193,-0.0269 1.80884,-0.36801 2.45073,-1.02339 0.64183,-0.65527 0.97398,-1.46321 0.99646,-2.42381 -0.024,-1.02931 -0.35314,-1.87914 -0.98748,-2.54948 -0.63441,-0.67024 -1.43038,-1.01735 -2.3879,-1.04134 z m -13.64514,0 c -0.96056,0.024 -1.7685,0.37111 -2.42381,1.04134 -0.65534,0.67034 -0.99647,1.52017 -1.02338,2.54948 0.0284,0.9606 0.36654,1.76854 1.01441,2.42381 0.64782,0.65538 1.43481,0.99651 2.36096,1.02339 0.99195,-0.0269 1.80886,-0.36801 2.45074,-1.02339 0.64184,-0.65527 0.97399,-1.46321 0.99646,-2.42381 -0.024,-1.02931 -0.35312,-1.87914 -0.98748,-2.54948 -0.6344,-0.67024 -1.43037,-1.01735 -2.3879,-1.04134 z"
         id="path3215"
         style="font-variant:normal;font-stretch:normal;fill:#666666;font-family:Minion Pro;-inkscape-font-specification:Minion Pro" />
      <path
         d="m 725.95617,1008.7623 c -0.79003,-0.1945 -1.61592,-0.5416 -2.47767,-1.0413 -0.86184,-0.4998 -1.75954,-1.2778 -2.69312,-2.3341 -0.86633,-0.8947 -1.7371,-1.9061 -2.61233,-3.0342 -0.8753,-1.1281 -1.94357,-2.60636 -3.20481,-4.4347 -1.13264,-1.70114 -2.31462,-3.54144 -3.54594,-5.5209 -1.23139,-1.97942 -2.17996,-3.58632 -2.84573,-4.82068 2.67364,-1.1655 4.84908,-2.74846 6.52633,-4.74887 1.67718,-2.00036 2.54197,-4.53489 2.59437,-7.60358 -0.0165,-2.16044 -0.45039,-4.03365 -1.30168,-5.61964 -0.85136,-1.58591 -2.02137,-2.84868 -3.51003,-3.78832 -1.31068,-0.88719 -2.89064,-1.51858 -4.73989,-1.89417 -1.8493,-0.37549 -4.07561,-0.55802 -6.67894,-0.54759 l -17.8105,0 0,2.01086 c 2.70808,0.12273 4.43766,0.55961 5.18875,1.31065 0.75107,0.75112 1.08023,2.58843 0.98747,5.51192 l 0,28.87022 c 0.0987,2.934 -0.24239,4.8043 -1.02338,5.6107 -0.78101,0.8064 -2.59438,1.2583 -5.4401,1.3555 l 0,2.0109 18.81593,0 0,-2.0109 c -2.74551,-0.097 -4.508,-0.5491 -5.2875,-1.3555 -0.77952,-0.8064 -1.12364,-2.6767 -1.03236,-5.6107 l 0,-11.4188 2.29813,0 c 1.78043,-0.006 3.10305,0.22145 3.96787,0.68225 0.86477,0.46084 1.57695,1.19098 2.13654,2.19041 1.08769,1.79842 2.25172,3.71353 3.49208,5.74532 1.2403,2.03182 2.4941,3.94692 3.76139,5.74532 1.55749,2.2966 3.21824,3.9335 4.98227,4.9105 1.76395,0.977 3.98129,1.5186 6.65201,1.6248 0.8019,0.06 1.63976,0.084 2.51358,0.072 z m -30.09113,-21.40133 0,-17.73869 c -0.003,-0.98893 0.0568,-1.72206 0.17954,-2.19938 0.12267,-0.47724 0.32615,-0.79742 0.61045,-0.96054 0.28276,-0.2184 0.74059,-0.39196 1.37349,-0.52068 0.63286,-0.12862 1.46773,-0.19445 2.5046,-0.19749 2.79334,-0.0418 5.21415,0.7601 7.26244,2.40585 2.04824,1.64584 3.1225,4.38683 3.22277,8.223 0.0104,1.93309 -0.29777,3.63275 -0.92463,5.09897 -0.62693,1.46628 -1.63535,2.73504 -3.02528,3.80628 -0.88426,0.74661 -1.95253,1.28224 -3.20481,1.60689 -1.25232,0.32469 -2.76945,0.48329 -4.55137,0.47579 z"
         id="path3217"
         style="font-variant:normal;font-stretch:normal;fill:#666666;font-family:Minion Pro;-inkscape-font-specification:Minion Pro" />
      <path
         d="m 789.84899,1010.055 0,-2.0109 c -2.23234,-0.1047 -3.8542,-0.5954 -4.86557,-1.4722 -1.01146,-0.8768 -2.02287,-2.8038 -3.03425,-5.7812 -2.31013,-6.30342 -4.63818,-12.74596 -6.98416,-19.32767 -2.34603,-6.58165 -4.63818,-12.97032 -6.87643,-19.16603 l -2.22631,0.64635 -14.86602,37.63185 c -1.11616,3.0672 -2.18742,5.0302 -3.21379,5.889 -1.02639,0.8588 -2.63627,1.3854 -4.82967,1.5799 l 0,2.0109 15.65601,0 0,-2.0109 c -2.67069,-0.1765 -4.29554,-0.6314 -4.87455,-1.3645 -0.57903,-0.7331 -0.46233,-2.1934 0.35011,-4.3808 0.46829,-1.5036 0.96801,-3.02077 1.49917,-4.55137 0.53113,-1.53057 1.08471,-3.10156 1.66076,-4.71296 l 15.29692,0 c 0.79743,2.20239 1.53654,4.24318 2.21733,6.12236 0.68073,1.87917 1.25825,3.52497 1.73258,4.93737 0.51465,1.3541 0.49071,2.2907 -0.0718,2.8098 -0.5626,0.5192 -1.95105,0.8992 -4.16536,1.1401 l 0,2.0109 z m -18.31321,-20.10864 -13.21425,0 c 1.11165,-2.95792 2.22779,-5.98319 3.34845,-9.07581 1.12062,-3.09257 2.25472,-6.1717 3.40231,-9.2374 l 0.14363,0 z"
         id="path3219"
         style="font-variant:normal;font-stretch:normal;fill:#666666;font-family:Minion Pro;-inkscape-font-specification:Minion Pro" />
      <path
         d="m 842.80758,963.37425 -16.9487,0 0,2.01086 c 2.47015,0.0734 4.22666,0.42945 5.26954,1.06827 1.04279,0.63891 1.63229,1.76703 1.76848,3.38435 0.14658,0.95909 0.26628,2.36251 0.35908,4.21025 0.0927,1.84781 0.1406,4.41824 0.14364,7.7113 l 0,17.66687 -0.21545,0 -30.01932,-36.0519 -10.55703,0 0,2.01086 c 1.64879,0.12423 2.94747,0.37858 3.89605,0.76305 0.94857,0.38456 1.78045,1.01595 2.49563,1.89416 0.62539,0.69726 1.02636,1.45732 1.20292,2.28018 0.17654,0.82293 0.25434,2.4807 0.23341,4.97329 l 0,15.79964 c -0.005,3.23176 -0.0494,5.81715 -0.13466,7.75618 -0.0853,1.93909 -0.18404,3.44719 -0.29624,4.52449 -0.16459,1.7206 -0.75109,2.9115 -1.75951,3.5728 -1.00843,0.6613 -2.52854,1.0264 -4.56035,1.0952 l 0,2.0109 17.02052,0 0,-2.0109 c -2.40138,-0.097 -4.116,-0.4772 -5.14386,-1.1401 -1.02789,-0.6628 -1.6114,-1.8866 -1.75053,-3.6716 -0.11222,-1.0039 -0.21097,-2.4612 -0.29624,-4.37181 -0.0853,-1.91061 -0.13018,-4.49899 -0.13466,-7.76516 l 0,-18.02595 0.14364,0 30.59384,37.63182 2.22631,0 0,-28.94202 c -4e-5,-3.28857 0.0359,-5.86798 0.10773,-7.73823 0.0718,-1.87019 0.17949,-3.33644 0.32317,-4.39877 0.12564,-1.51409 0.66426,-2.57937 1.61587,-3.19583 0.95152,-0.61638 2.42376,-0.9635 4.41672,-1.04134 z"
         id="path3221"
         style="font-variant:normal;font-stretch:normal;fill:#666666;font-family:Minion Pro;-inkscape-font-specification:Minion Pro" />
      <path
         d="m 894.17057,988.3664 -18.2414,0 0,2.01086 c 3.42471,0.15413 5.57023,0.59999 6.43655,1.33759 0.86625,0.73763 1.23431,2.35051 1.10418,4.83863 l 0,6.10442 c -0.006,1.4677 -0.2095,2.536 -0.61044,3.2048 -0.40101,0.6688 -0.96357,1.1805 -1.68768,1.5351 -0.799,0.3965 -1.73261,0.6987 -2.80085,0.9067 -1.0683,0.2079 -2.21737,0.3127 -3.44719,0.3142 -4.61003,-0.085 -8.38882,-1.2559 -11.33638,-3.5137 -2.9476,-2.2578 -5.12514,-5.0941 -6.53264,-8.50896 -1.40753,-3.41481 -2.10619,-6.90013 -2.09598,-10.45595 0.10622,-6.66993 1.90462,-11.87663 5.39522,-15.6201 3.49056,-3.74339 8.03594,-5.64653 13.63616,-5.70941 3.49205,-0.0852 6.47243,0.67781 8.94116,2.28915 2.46865,1.61142 4.15634,4.58283 5.06307,8.91423 l 2.01086,-0.4309 c -0.2514,-2.38338 -0.46685,-4.5289 -0.64635,-6.43656 -0.17959,-1.90758 -0.32322,-3.49652 -0.4309,-4.76682 -1.23738,-0.30667 -3.08965,-0.71663 -5.55681,-1.22986 -2.46723,-0.51315 -5.23515,-0.79742 -8.30378,-0.85282 -4.77006,-0.002 -9.22623,0.90396 -13.36852,2.71838 -4.14231,1.81452 -7.50262,4.55064 -10.08091,8.20837 -2.57831,3.6578 -3.90647,8.25051 -3.98449,13.77814 0.11072,7.25797 2.52854,13.06611 7.25347,17.42451 4.72492,4.3583 11.09264,6.5936 19.1032,6.7058 2.90555,-0.045 5.74828,-0.3501 8.52822,-0.9156 2.77985,-0.5656 5.29941,-1.1222 7.55869,-1.6698 -0.20952,-1.0069 -0.34716,-2.0811 -0.41295,-3.2227 -0.0659,-1.1416 -0.0958,-2.3415 -0.0898,-3.5998 l 0,-6.17625 c -0.0779,-2.03329 0.14957,-3.35291 0.68226,-3.95888 0.53259,-0.60594 1.83725,-1.0099 3.914,-1.21191 z"
         id="path3223"
         style="font-variant:normal;font-stretch:normal;fill:#666666;font-family:Minion Pro;-inkscape-font-specification:Minion Pro" />
      <path
         d="m 932.94092,998.42071 c -0.51323,1.4169 -1.08477,2.71259 -1.71462,3.88709 -0.62993,1.1745 -1.25533,2.129 -1.87621,2.8637 -0.72718,0.9186 -1.75056,1.559 -3.07016,1.9211 -1.31966,0.362 -3.31256,0.5356 -5.97872,0.5206 -1.79694,0.019 -3.32004,-0.019 -4.56933,-0.1167 -1.24933,-0.097 -2.21586,-0.3695 -2.89959,-0.8169 -0.63739,-0.4084 -1.08625,-1.0638 -1.34656,-1.966 -0.26036,-0.9022 -0.38603,-2.1859 -0.37704,-3.8511 l 0,-13.57335 6.82257,0 c 2.99532,-0.0882 4.94035,0.19602 5.83509,0.85282 0.89469,0.65685 1.51111,2.21586 1.84928,4.67705 l 2.08268,0 0,-13.71695 -2.08268,0 c -0.29179,2.32957 -0.87529,3.82874 -1.75053,4.49751 -0.87529,0.66881 -2.87717,0.96506 -6.00566,0.88873 l -6.75075,0 0,-16.37417 c -0.0404,-1.00689 0.0763,-1.65024 0.35011,-1.93007 0.27378,-0.27974 0.94706,-0.40243 2.01984,-0.36806 l 5.45805,0 c 2.53749,-0.0119 4.41071,0.13769 5.61965,0.44885 1.20888,0.31125 2.04075,0.85586 2.49562,1.63383 0.46378,0.72568 0.88271,1.55457 1.25679,2.48664 0.37401,0.93216 0.72112,2.13808 1.04134,3.61776 l 2.08268,-0.28726 c -0.11824,-1.92106 -0.24092,-3.87806 -0.36806,-5.87101 -0.12721,-1.99286 -0.19604,-3.48305 -0.20647,-4.47057 l -32.03018,0 0,2.01086 c 2.70808,0.0853 4.43766,0.5252 5.18875,1.31963 0.75107,0.79451 1.08023,2.72458 0.98747,5.79021 l 0,28.58295 c 0.11221,2.8353 -0.25585,4.6696 -1.10418,5.503 -0.84834,0.8333 -2.85022,1.3211 -6.00565,1.4632 l 0,2.0109 34.61557,0 c 0.36054,-1.2987 0.8064,-3.1719 1.33758,-5.6197 0.53111,-2.4477 0.9231,-4.3568 1.176,-5.72732 z"
         id="path3225"
         style="font-variant:normal;font-stretch:normal;fill:#666666;font-family:Minion Pro;-inkscape-font-specification:Minion Pro" />
      <path
         d="m 1005.2865,963.37425 -15.79962,0 0,2.01086 c 2.71701,0.2529 4.35681,0.75262 4.91943,1.49917 0.56251,0.74663 0.55054,2.16202 -0.0359,4.24615 -0.38353,1.7826 -1.02101,4.3139 -1.91245,7.59393 -0.89156,3.28009 -1.89078,6.81151 -2.99768,10.59427 -1.107,3.7828 -2.17538,7.31954 -3.20514,10.61023 l -0.14363,0 c -2.18896,-6.19117 -4.32849,-12.24769 -6.41861,-18.16958 -2.0902,-5.92184 -4.13996,-11.83473 -6.14929,-17.73869 l -2.08268,0 c -1.84482,5.8516 -3.75693,11.76149 -5.73634,17.72971 -1.97947,5.96828 -3.94545,12.00385 -5.89794,18.10674 l -0.14363,0 c -1.5725,-5.08848 -3.07766,-10.08272 -4.51546,-14.98272 -1.43785,-4.89995 -2.85323,-9.76851 -4.24616,-14.60569 -0.61943,-1.76545 -0.69124,-2.9564 -0.21545,-3.57287 0.47577,-0.61638 1.98392,-1.05327 4.52445,-1.31065 l 0,-2.01086 -17.45142,0 0,2.01086 c 2.10661,0.14517 3.6387,0.6449 4.59626,1.49917 0.95754,0.85436 1.84328,2.70064 2.65721,5.53885 1.98093,6.38123 3.96187,12.75793 5.94282,19.13013 1.98092,6.37223 3.92595,12.80284 5.83509,19.29174 l 2.22631,0 c 1.83878,-5.7932 3.74491,-11.64028 5.71839,-17.54122 1.97343,-5.9009 3.96933,-11.99931 5.98771,-18.29526 l 0.14363,0 c 1.87916,5.32643 3.9379,11.15553 6.17622,17.48733 2.23824,6.33183 4.3688,12.44825 6.39167,18.34915 l 2.22632,0 c 2.97135,-10.1052 5.48493,-18.42394 7.54073,-24.95627 2.05569,-6.53228 3.49202,-10.97294 4.30899,-13.32197 0.956,-2.86663 1.89859,-4.72788 2.82777,-5.58373 0.9291,-0.85578 2.5719,-1.38841 4.9284,-1.59792 z"
         id="path3227"
         style="font-variant:normal;font-stretch:normal;fill:#666666;font-family:Minion Pro;-inkscape-font-specification:Minion Pro" />
      <path
         d="m 1054.6759,1010.055 0,-2.0109 c -2.2324,-0.1047 -3.8542,-0.5954 -4.8656,-1.4722 -1.0114,-0.8768 -2.0229,-2.8038 -3.0342,-5.7812 -2.3102,-6.30342 -4.6382,-12.74596 -6.9842,-19.32767 -2.346,-6.58165 -4.6382,-12.97032 -6.8764,-19.16603 l -2.2263,0.64635 -14.8661,37.63185 c -1.1161,3.0672 -2.1874,5.0302 -3.2138,5.889 -1.0263,0.8588 -2.6362,1.3854 -4.8296,1.5799 l 0,2.0109 15.656,0 0,-2.0109 c -2.6707,-0.1765 -4.2956,-0.6314 -4.8746,-1.3645 -0.579,-0.7331 -0.4623,-2.1934 0.3501,-4.3808 0.4683,-1.5036 0.9681,-3.02077 1.4992,-4.55137 0.5311,-1.53057 1.0847,-3.10156 1.6608,-4.71296 l 15.2969,0 c 0.7974,2.20239 1.5365,4.24318 2.2173,6.12236 0.6808,1.87917 1.2583,3.52497 1.7326,4.93737 0.5147,1.3541 0.4907,2.2907 -0.072,2.8098 -0.5626,0.5192 -1.9511,0.8992 -4.1654,1.1401 l 0,2.0109 z m -18.3132,-20.10864 -13.2143,0 c 1.1117,-2.95792 2.2278,-5.98319 3.3485,-9.07581 1.1206,-3.09257 2.2547,-6.1717 3.4023,-9.2374 l 0.1436,0 z"
         id="path3229"
         style="font-variant:normal;font-stretch:normal;fill:#666666;font-family:Minion Pro;-inkscape-font-specification:Minion Pro" />
      <path
         d="m 1107.6345,963.37425 -16.9487,0 0,2.01086 c 2.4701,0.0734 4.2266,0.42945 5.2695,1.06827 1.0428,0.63891 1.6323,1.76703 1.7685,3.38435 0.1466,0.95909 0.2663,2.36251 0.3591,4.21025 0.093,1.84781 0.1406,4.41824 0.1436,7.7113 l 0,17.66687 -0.2154,0 -30.0194,-36.0519 -10.557,0 0,2.01086 c 1.6488,0.12423 2.9475,0.37858 3.8961,0.76305 0.9485,0.38456 1.7804,1.01595 2.4956,1.89416 0.6254,0.69726 1.0264,1.45732 1.2029,2.28018 0.1766,0.82293 0.2544,2.4807 0.2334,4.97329 l 0,15.79964 c 0,3.23176 -0.049,5.81715 -0.1346,7.75618 -0.085,1.93909 -0.1841,3.44719 -0.2963,4.52449 -0.1646,1.7206 -0.7511,2.9115 -1.7595,3.5728 -1.0084,0.6613 -2.5285,1.0264 -4.5603,1.0952 l 0,2.0109 17.0205,0 0,-2.0109 c -2.4014,-0.097 -4.116,-0.4772 -5.1439,-1.1401 -1.0279,-0.6628 -1.6114,-1.8866 -1.7505,-3.6716 -0.1122,-1.0039 -0.211,-2.4612 -0.2963,-4.37181 -0.085,-1.91061 -0.1301,-4.49899 -0.1346,-7.76516 l 0,-18.02595 0.1436,0 30.5939,37.63182 2.2263,0 0,-28.94202 c -10e-5,-3.28857 0.036,-5.86798 0.1077,-7.73823 0.072,-1.87019 0.1795,-3.33644 0.3232,-4.39877 0.1256,-1.51409 0.6642,-2.57937 1.6159,-3.19583 0.9515,-0.61638 2.4237,-0.9635 4.4167,-1.04134 z"
         id="path3231"
         style="font-variant:normal;font-stretch:normal;fill:#666666;font-family:Minion Pro;-inkscape-font-specification:Minion Pro" />
      <path
         d="m 1112.3885,963.37425 0,2.01086 c 2.6737,0.0898 4.3823,0.52071 5.1259,1.2927 0.7436,0.77207 1.0698,2.63929 0.9785,5.60169 l 0,28.8702 c 0.1048,2.9341 -0.2483,4.8043 -1.0593,5.6107 -0.8109,0.8065 -2.7081,1.2583 -5.6914,1.3555 l 0,1.9391 16.9487,0 c 4.3853,0.012 8.3621,-0.4608 11.9305,-1.4184 3.5684,-0.9575 6.7013,-2.4717 9.399,-4.5424 2.7559,-2.0827 4.9104,-4.72191 6.4635,-7.91775 1.553,-3.19582 2.3429,-6.94823 2.3699,-11.25724 -0.03,-3.38134 -0.5985,-6.36771 -1.7056,-8.95912 -1.1072,-2.59134 -2.5735,-4.75182 -4.3988,-6.48144 -2.2218,-2.13949 -5.0137,-3.69551 -8.3756,-4.66807 -3.3619,-0.97247 -7.3208,-1.45125 -11.8766,-1.43633 z m 12.2088,7.3971 c 0,-1.40038 0.073,-2.38786 0.2245,-2.96243 0.1511,-0.57449 0.3875,-0.95153 0.7092,-1.13111 0.359,-0.29022 1.0054,-0.51764 1.939,-0.68226 0.9336,-0.16454 2.1545,-0.24832 3.6626,-0.25136 2.4119,-0.003 4.6442,0.23644 6.6969,0.71817 2.0528,0.48181 3.8901,1.22391 5.512,2.22631 2.8666,1.73261 4.9971,4.10256 6.3916,7.10984 1.3944,3.00734 2.0886,6.38272 2.0827,10.12613 0.018,5.92488 -1.58,10.95203 -4.7938,15.08146 -3.2138,4.1295 -8.1512,6.284 -14.8121,6.4635 -2.6109,0.057 -4.5349,-0.398 -5.7723,-1.3645 -1.2373,-0.9665 -1.8508,-2.7859 -1.8403,-5.4581 z"
         id="path3233"
         style="font-variant:normal;font-stretch:normal;fill:#666666;font-family:Minion Pro;-inkscape-font-specification:Minion Pro" />
      <path
         d="m 1204.5567,974.29036 c -0.217,-2.14548 -0.3935,-4.37179 -0.5296,-6.67894 -0.1362,-2.30706 -0.223,-4.31792 -0.2604,-6.03259 l -1.5081,0 c -0.4998,0.67183 -0.9905,1.14163 -1.4723,1.4094 -0.4818,0.26786 -1.188,0.39653 -2.1185,0.38602 l -28.3676,0 c -0.9815,0.0285 -1.7655,-0.0643 -2.352,-0.27829 -0.5865,-0.21391 -1.1191,-0.71962 -1.5979,-1.51713 l -1.4363,0 c -0.076,1.99745 -0.193,4.10705 -0.3501,6.32883 -0.1571,2.22187 -0.3277,4.42125 -0.5117,6.59815 l 2.0827,0 c 0.4189,-1.57544 0.8019,-2.89507 1.149,-3.95889 0.3471,-1.06374 0.7302,-1.89861 1.1491,-2.5046 0.383,-0.78395 1.1431,-1.3525 2.2802,-1.70564 1.1371,-0.35306 3.1539,-0.52661 6.0505,-0.52067 l 4.4526,0 0,35.40559 c 0.1122,2.7395 -0.2558,4.5319 -1.1041,5.3772 -0.8484,0.8454 -2.8503,1.3271 -6.0057,1.4453 l 0,2.0109 20.5395,0 0,-2.0109 c -3.2587,-0.1182 -5.3234,-0.5999 -6.1942,-1.4453 -0.8708,-0.8453 -1.2478,-2.6377 -1.1311,-5.3772 l 0,-35.40559 5.0272,0 c 2.6377,-0.0119 4.472,0.15564 5.5029,0.50271 1.0309,0.34716 1.8059,0.94563 2.3251,1.79542 0.3935,0.55362 0.7735,1.33163 1.1401,2.33403 0.3665,1.00248 0.7286,2.35502 1.0862,4.05764 z"
         id="path3235"
         style="font-variant:normal;font-stretch:normal;fill:#666666;font-family:Minion Pro;-inkscape-font-specification:Minion Pro" />
      <path
         d="m 1243.4954,998.42071 c -0.5133,1.4169 -1.0848,2.71259 -1.7147,3.88709 -0.6299,1.1745 -1.2553,2.129 -1.8762,2.8637 -0.7271,0.9186 -1.7505,1.559 -3.0701,1.9211 -1.3197,0.362 -3.3126,0.5356 -5.9788,0.5206 -1.7969,0.019 -3.32,-0.019 -4.5693,-0.1167 -1.2493,-0.097 -2.2158,-0.3695 -2.8996,-0.8169 -0.6374,-0.4084 -1.0862,-1.0638 -1.3465,-1.966 -0.2604,-0.9022 -0.3861,-2.1859 -0.3771,-3.8511 l 0,-13.57335 6.8226,0 c 2.9953,-0.0882 4.9404,0.19602 5.8351,0.85282 0.8947,0.65685 1.5111,2.21586 1.8493,4.67705 l 2.0827,0 0,-13.71695 -2.0827,0 c -0.2918,2.32957 -0.8753,3.82874 -1.7506,4.49751 -0.8752,0.66881 -2.8771,0.96506 -6.0056,0.88873 l -6.7508,0 0,-16.37417 c -0.04,-1.00689 0.076,-1.65024 0.3501,-1.93007 0.2738,-0.27974 0.9471,-0.40243 2.0199,-0.36806 l 5.458,0 c 2.5375,-0.0119 4.4107,0.13769 5.6197,0.44885 1.2089,0.31125 2.0407,0.85586 2.4956,1.63383 0.4638,0.72568 0.8827,1.55457 1.2568,2.48664 0.374,0.93216 0.7211,2.13808 1.0413,3.61776 l 2.0827,-0.28726 c -0.1182,-1.92106 -0.2409,-3.87806 -0.3681,-5.87101 -0.1272,-1.99286 -0.196,-3.48305 -0.2064,-4.47057 l -32.0302,0 0,2.01086 c 2.7081,0.0853 4.4377,0.5252 5.1887,1.31963 0.7511,0.79451 1.0803,2.72458 0.9875,5.79021 l 0,28.58295 c 0.1122,2.8353 -0.2558,4.6696 -1.1042,5.503 -0.8483,0.8333 -2.8502,1.3211 -6.0056,1.4632 l 0,2.0109 34.6156,0 c 0.3605,-1.2987 0.8064,-3.1719 1.3375,-5.6197 0.5311,-2.4477 0.9231,-4.3568 1.176,-5.72732 z"
         id="path3237"
         style="font-variant:normal;font-stretch:normal;fill:#666666;font-family:Minion Pro;-inkscape-font-specification:Minion Pro" />
    </g>
    <g
       transform="matrix(1.0433,0,0,0.958501,366.361,-203.397)"
       id="text5351"
       style="font-size:154.42764282px;font-style:normal;font-weight:normal;line-height:125%;letter-spacing:0px;word-spacing:0px;fill:#e40000;fill-opacity:1;stroke:none;font-family:Sans">
      <path
         d="m 776.87205,1207.3073 -36.7533,0 0,4.3239 c 5.36299,0.3218 9.11425,1.1068 11.25377,2.355 2.13935,1.2484 3.38119,3.346 3.72552,6.2928 0.31519,2.2683 0.57257,5.3375 0.77212,9.2077 0.19938,3.8703 0.30233,9.2945 0.30885,16.2726 l 0,11.5819 c 0.17043,12.9879 -1.90788,23.5338 -6.23493,31.638 -4.32722,8.1041 -11.92624,12.28 -22.79709,12.5277 -9.66131,-0.08 -16.93861,-3.5099 -21.83193,-10.2886 -4.8934,-6.7786 -7.3449,-16.4238 -7.35452,-28.9355 l 0,-35.0546 c -0.18984,-6.682 0.53724,-10.9223 2.18127,-12.7208 1.64395,-1.7983 5.34373,-2.7571 11.09934,-2.8762 l 0,-4.3239 -39.84182,0 0,4.3239 c 5.89712,0.2543 9.66124,1.2516 11.29238,2.992 1.6311,1.7406 2.34532,5.9423 2.14265,12.605 l 0,38.452 c -0.0129,9.0597 1.09383,16.575 3.32015,22.5461 2.22628,5.9712 5.64938,10.7069 10.26931,14.2072 3.43272,2.6059 7.26118,4.4976 11.48541,5.6751 4.22413,1.1775 8.6317,1.7566 13.22269,1.7373 5.16677,0.019 10.15986,-0.83 14.97929,-2.548 4.81929,-1.718 9.04026,-4.4204 12.66291,-8.1074 4.40747,-4.681 7.48312,-10.3754 9.22693,-17.0833 1.74363,-6.7078 2.5801,-14.6028 2.50942,-23.685 l 0,-12.6629 c 0.01,-6.9974 0.10607,-12.4216 0.28955,-16.2726 0.18328,-3.8509 0.39561,-6.7657 0.637,-8.7444 0.25085,-3.1785 1.40904,-5.4305 3.47458,-6.7561 2.06533,-1.3254 5.38548,-2.1104 9.96045,-2.355 z m -37.67986,-22.3917 c -2.06551,0.052 -3.8028,0.798 -5.21187,2.2391 -1.4092,1.4415 -2.14272,3.2688 -2.20056,5.4821 0.0611,2.0656 0.78815,3.8029 2.18126,5.2119 1.39298,1.4093 3.08523,2.1428 5.07675,2.2006 2.13293,-0.058 3.88952,-0.7913 5.26977,-2.2006 1.3801,-1.409 2.09432,-3.1463 2.14266,-5.2119 -0.0516,-2.2133 -0.75934,-4.0406 -2.12335,-5.4821 -1.36417,-1.4412 -3.07572,-2.1875 -5.13466,-2.2391 z m -29.34087,0 c -2.06549,0.052 -3.80277,0.798 -5.21187,2.2391 -1.40917,1.4415 -2.14269,3.2688 -2.20056,5.4821 0.0611,2.0656 0.78818,3.8029 2.18126,5.2119 1.39301,1.4093 3.08525,2.1428 5.07674,2.2006 2.13296,-0.058 3.88955,-0.7913 5.26978,-2.2006 1.38013,-1.409 2.09434,-3.1463 2.14265,-5.2119 -0.0515,-2.2133 -0.75931,-4.0406 -2.12335,-5.4821 -1.36414,-1.4412 -3.07569,-2.1875 -5.13465,-2.2391 z"
         id="path3200"
         style="font-variant:normal;font-stretch:normal;fill:#e40000;font-family:Minion Pro;-inkscape-font-specification:Minion Pro" />
      <path
         d="m 891.04475,1207.3073 -36.44446,0 0,4.3239 c 5.31152,0.1577 9.08851,0.9234 11.33099,2.2971 2.2423,1.3738 3.50987,3.7996 3.80273,7.2773 0.31519,2.0623 0.57257,5.08 0.77213,9.0532 0.19937,3.9733 0.30232,9.5005 0.30885,16.5815 l 0,37.9887 -0.46328,0 -64.54992,-77.5217 -22.70057,0 0,4.3239 c 3.54535,0.2671 6.33787,0.8141 8.37759,1.6408 2.03969,0.8269 3.82845,2.1846 5.36629,4.073 1.34477,1.4993 2.20698,3.1336 2.58663,4.903 0.37961,1.7695 0.5469,5.3342 0.50188,10.6939 l 0,33.9737 c -0.01,6.9492 -0.10618,12.5085 -0.28954,16.678 -0.18341,4.1695 -0.39574,7.4124 -0.63701,9.7288 -0.35391,3.6998 -1.61506,6.2607 -3.78343,7.6827 -2.16841,1.422 -5.43708,2.207 -9.80603,2.3549 l 0,4.324 36.59888,0 0,-4.324 c -5.16364,-0.2091 -8.85055,-1.0262 -11.06074,-2.4515 -2.21024,-1.4252 -3.46495,-4.0568 -3.76412,-7.895 -0.24132,-2.1587 -0.45365,-5.2923 -0.63701,-9.4006 -0.18341,-4.1084 -0.27992,-9.6741 -0.28955,-16.6973 l 0,-38.7609 0.30886,0 65.78532,80.9191 4.7872,0 0,-62.2335 c -10e-5,-7.0714 0.0771,-12.6178 0.23164,-16.6394 0.15432,-4.0214 0.38596,-7.1743 0.69491,-9.4586 0.27015,-3.2557 1.42834,-5.5463 3.47458,-6.8719 2.04603,-1.3254 5.21176,-2.0718 9.49718,-2.2392 z"
         id="path3202"
         style="font-variant:normal;font-stretch:normal;fill:#e40000;font-family:Minion Pro;-inkscape-font-specification:Minion Pro" />
      <path
         d="m 989.44432,1280.6595 c -3.71918,7.6794 -8.01735,13.5541 -12.89454,17.6238 -4.87736,4.0698 -11.18306,6.1223 -18.91714,6.1577 -11.95517,-0.222 -21.63251,-4.7196 -29.03203,-13.4929 -7.39959,-8.7733 -11.20875,-20.4903 -11.4275,-35.1512 0.0354,-12.1545 3.40056,-22.6297 10.09558,-31.4256 6.69496,-8.7957 16.50741,-13.4027 29.43739,-13.8211 8.29066,-0.064 14.87305,1.7245 19.74718,5.3663 4.87398,3.642 8.32925,9.523 10.36582,17.6431 l 4.47835,-1.2354 c -0.45694,-4.0053 -0.93309,-7.808 -1.42844,-11.4082 -0.49555,-3.5999 -1.0489,-7.5185 -1.66007,-11.7556 -2.24892,-0.5114 -5.7814,-1.3029 -10.59747,-2.3743 -4.81623,-1.0712 -10.39485,-1.6696 -16.73588,-1.7952 -17.54344,0.2092 -31.75703,5.1187 -42.64078,14.7283 -10.8838,9.6099 -16.48816,22.6653 -16.81309,39.1663 -0.0296,8.3609 1.89981,16.4158 5.7881,24.1647 3.88827,7.749 9.91277,14.1338 18.07352,19.1545 8.16069,5.0207 18.63493,7.6193 31.42276,7.7956 5.77803,-0.1093 11.36308,-0.6627 16.75518,-1.66 5.39195,-0.9974 9.27832,-1.7824 11.65914,-2.355 1.44765,-2.844 2.99191,-6.576 4.63277,-11.1959 1.64068,-4.6199 3.03051,-8.8151 4.16949,-12.5857 z"
         id="path3204"
         style="font-variant:normal;font-stretch:normal;fill:#e40000;font-family:Minion Pro;-inkscape-font-specification:Minion Pro" />
      <path
         d="m 1109.7529,1207.3073 -40.3051,0 0,4.3239 c 5.823,0.2832 9.5421,1.2612 11.1572,2.9341 1.615,1.673 2.3228,5.5851 2.1234,11.7363 l 0,25.017 -52.6592,0 0,-25.017 c -0.193,-6.1608 0.5019,-10.0922 2.0848,-11.7942 1.5828,-1.7018 5.2118,-2.6606 10.887,-2.8762 l 0,-4.3239 -39.9963,0 0,4.3239 c 6.1192,0.206 10.0184,1.1454 11.6978,2.8183 1.6794,1.673 2.4129,5.6237 2.2006,11.8521 l 0,62.388 c 0.2058,6.2285 -0.5148,10.1792 -2.162,11.8522 -1.6472,1.6729 -5.4564,2.6123 -11.4275,2.8182 l 0,4.324 40.6139,0 0,-4.324 c -6.1191,-0.2155 -10.0184,-1.1742 -11.6977,-2.8761 -1.6794,-1.7019 -2.4129,-5.6333 -2.2006,-11.7943 l 0,-30.7307 52.6592,0 0,30.7307 c 0.2251,6.2285 -0.5342,10.1792 -2.2778,11.8522 -1.7438,1.6729 -5.8232,2.6123 -12.2382,2.8182 l 0,4.324 41.3861,0 0,-4.324 c -6.0453,-0.2059 -9.8995,-1.1453 -11.5627,-2.8182 -1.6634,-1.673 -2.3904,-5.6237 -2.1812,-11.8522 l 0,-62.388 c -0.2125,-6.1512 0.5211,-10.0633 2.2005,-11.7363 1.6793,-1.6729 5.5786,-2.6509 11.6978,-2.9341 z"
         id="path3206"
         style="font-variant:normal;font-stretch:normal;fill:#e40000;font-family:Minion Pro;-inkscape-font-specification:Minion Pro" />
      <path
         d="m 1195.2483,1282.667 c -1.1036,3.0467 -2.3325,5.8328 -3.6869,8.3583 -1.3545,2.5255 -2.6993,4.5781 -4.0344,6.1577 -1.5636,1.9754 -3.7642,3.3523 -6.6017,4.1309 -2.8376,0.7786 -7.1229,1.1518 -12.8559,1.1196 -3.8639,0.042 -7.139,-0.042 -9.8253,-0.251 -2.6864,-0.2091 -4.7647,-0.7946 -6.235,-1.7565 -1.3705,-0.8783 -2.3357,-2.2875 -2.8955,-4.2274 -0.5598,-1.94 -0.83,-4.7004 -0.8107,-8.2811 l 0,-29.1865 14.6704,0 c 6.4408,-0.1897 10.6232,0.4215 12.5471,1.8338 1.9239,1.4124 3.2493,4.7648 3.9765,10.057 l 4.4783,0 0,-29.4953 -4.4783,0 c -0.6274,5.0092 -1.8821,8.2329 -3.7641,9.6709 -1.8822,1.4382 -6.1868,2.0752 -12.9139,1.911 l -14.516,0 0,-35.209 c -0.087,-2.1651 0.1641,-3.5485 0.7528,-4.1502 0.5888,-0.6015 2.0365,-0.8653 4.3433,-0.7914 l 11.7363,0 c 5.4563,-0.026 9.4843,0.296 12.0838,0.9651 2.5995,0.6693 4.3882,1.8403 5.3663,3.5132 0.9973,1.5604 1.8981,3.3428 2.7025,5.347 0.8042,2.0044 1.5506,4.5975 2.2391,7.7792 l 4.4784,-0.6177 c -0.2543,-4.1308 -0.5181,-8.3389 -0.7915,-12.6243 -0.2735,-4.2852 -0.4215,-7.4896 -0.4439,-9.613 l -68.8739,0 0,4.3239 c 5.8231,0.1835 9.5422,1.1293 11.1573,2.8376 1.615,1.7084 2.3228,5.8586 2.1233,12.4505 l 0,61.4615 c 0.2413,6.0966 -0.5501,10.0408 -2.3743,11.8328 -1.8241,1.792 -6.1287,2.8408 -12.9138,3.1464 l 0,4.324 74.4332,0 c 0.7752,-2.7926 1.7339,-6.8205 2.8761,-12.0839 1.1421,-5.2633 1.985,-9.3684 2.5288,-12.3154 z"
         id="path3208"
         style="font-variant:normal;font-stretch:normal;fill:#e40000;font-family:Minion Pro;-inkscape-font-specification:Minion Pro" />
      <path
         d="m 1314.2127,1207.3073 -36.4444,0 0,4.3239 c 5.3115,0.1577 9.0885,0.9234 11.3309,2.2971 2.2423,1.3738 3.5099,3.7996 3.8028,7.2773 0.3152,2.0623 0.5725,5.08 0.7721,9.0532 0.1994,3.9733 0.3023,9.5005 0.3088,16.5815 l 0,37.9887 -0.4632,0 -64.55,-77.5217 -22.7005,0 0,4.3239 c 3.5453,0.2671 6.3379,0.8141 8.3776,1.6408 2.0397,0.8269 3.8284,2.1846 5.3663,4.073 1.3447,1.4993 2.2069,3.1336 2.5866,4.903 0.3796,1.7695 0.5469,5.3342 0.5019,10.6939 l 0,33.9737 c -0.01,6.9492 -0.1062,12.5085 -0.2896,16.678 -0.1834,4.1695 -0.3957,7.4124 -0.637,9.7288 -0.3539,3.6998 -1.615,6.2607 -3.7834,7.6827 -2.1684,1.422 -5.4371,2.207 -9.806,2.3549 l 0,4.324 36.5988,0 0,-4.324 c -5.1636,-0.2091 -8.8505,-1.0262 -11.0607,-2.4515 -2.2102,-1.4252 -3.4649,-4.0568 -3.7641,-7.895 -0.2413,-2.1587 -0.4537,-5.2923 -0.637,-9.4006 -0.1834,-4.1084 -0.28,-9.6741 -0.2896,-16.6973 l 0,-38.7609 0.3089,0 65.7853,80.9191 4.7872,0 0,-62.2335 c -10e-5,-7.0714 0.077,-12.6178 0.2316,-16.6394 0.1544,-4.0214 0.386,-7.1743 0.695,-9.4586 0.2701,-3.2557 1.4283,-5.5463 3.4745,-6.8719 2.0461,-1.3254 5.2118,-2.0718 9.4972,-2.2392 z"
         id="path3210"
         style="font-variant:normal;font-stretch:normal;fill:#e40000;font-family:Minion Pro;-inkscape-font-specification:Minion Pro" />
    </g>
    <g
       transform="matrix(1.1228348,0,0,1.0967252,361.74142,-310.71013)"
       id="text5343-7"
       style="font-size:73.12447357px;font-style:normal;font-weight:normal;line-height:125%;letter-spacing:0px;word-spacing:0px;fill:#666666;fill-opacity:1;stroke:none;font-family:Sans">
      <path
         d="m 660.16672,1053.4632 -16.08718,0 0,2.0475 c 2.76645,0.2575 4.4361,0.7663 5.00896,1.5264 0.57274,0.7603 0.56056,2.2014 -0.0366,4.3235 -0.3905,1.815 -1.03959,4.3924 -1.94725,7.7321 -0.90778,3.3398 -1.92519,6.9355 -3.05223,10.7871 -1.12715,3.8516 -2.21498,7.4527 -3.26348,10.8033 l -0.14625,0 c -2.22879,-6.3038 -4.40726,-12.4706 -6.53541,-18.5002 -2.12825,-6.0297 -4.21531,-12.0502 -6.2612,-18.0616 l -2.12059,0 c -1.87839,5.9581 -3.8253,11.9756 -5.84074,18.0524 -2.01549,6.0769 -4.01725,12.2223 -6.00527,18.4363 l -0.14625,0 c -1.60112,-5.1811 -3.13366,-10.2662 -4.59764,-15.2554 -1.46401,-4.9891 -2.90515,-9.9463 -4.32343,-14.8715 -0.6307,-1.7976 -0.70383,-3.0102 -0.21937,-3.6379 0.48443,-0.6276 2.02002,-1.0724 4.60678,-1.3345 l 0,-2.0475 -17.76901,0 0,2.0475 c 2.14495,0.1478 3.70492,0.6566 4.6799,1.5264 0.97498,0.87 1.87683,2.7498 2.70557,5.6397 2.01698,6.4974 4.03397,12.9901 6.05098,19.4783 2.01697,6.4882 3.9974,13.0358 5.94128,19.6428 l 2.26683,0 c 1.87225,-5.8986 3.81306,-11.8521 5.82246,-17.8604 2.00935,-6.0083 4.04157,-12.2177 6.09668,-18.6283 l 0.14624,0 c 1.91337,5.4234 4.00957,11.3586 6.28863,17.8056 2.27897,6.4471 4.4483,12.6748 6.50799,18.6831 l 2.26683,0 c 3.02544,-10.2891 5.58476,-18.7592 7.67797,-25.4104 2.09311,-6.6512 3.55557,-11.1727 4.38742,-13.5645 0.97339,-2.9188 1.93313,-4.8139 2.87923,-5.6853 0.94597,-0.8714 2.61867,-1.4137 5.01811,-1.627 z"
         id="path3165"
         style="font-variant:normal;font-stretch:normal;fill:#666666;font-family:Minion Pro;-inkscape-font-specification:Minion Pro" />
      <path
         d="m 683.39921,1100.9935 0,-2.0474 c -2.89754,-0.094 -4.74391,-0.5454 -5.53911,-1.3528 -0.79524,-0.8074 -1.14257,-2.7208 -1.04201,-5.7402 l 0,-29.2494 c -0.10056,-2.9874 0.24677,-4.8916 1.04201,-5.7128 0.7952,-0.8211 2.64157,-1.2811 5.53911,-1.3802 l 0,-2.0475 -19.37774,0 0,2.0475 c 2.89751,0.099 4.74388,0.5591 5.53911,1.3802 0.79521,0.8212 1.14254,2.7254 1.04201,5.7128 l 0,29.2494 c 0.10053,2.9874 -0.2468,4.8917 -1.04201,5.7128 -0.79523,0.8211 -2.6416,1.2812 -5.53911,1.3802 l 0,2.0474 z"
         id="path3167"
         style="font-variant:normal;font-stretch:normal;fill:#666666;font-family:Minion Pro;-inkscape-font-specification:Minion Pro" />
      <path
         d="m 716.14402,1064.1393 c -0.28948,-2.276 -0.53322,-4.2137 -0.73123,-5.8134 -0.19808,-1.5995 -0.3687,-3.0254 -0.51187,-4.2777 -1.38937,-0.4539 -2.85184,-0.8439 -4.38741,-1.17 -1.53562,-0.3259 -3.14433,-0.4965 -4.82615,-0.5118 -4.75457,0.1036 -8.44426,1.3955 -11.06908,3.8755 -2.62484,2.4802 -3.95629,5.527 -3.99437,9.1405 0.21022,4.0553 1.63613,7.1692 4.27772,9.3415 2.64158,2.1724 5.23746,3.8603 7.78766,5.0638 2.79543,1.3955 5.06531,2.9006 6.80963,4.5154 1.74427,1.6148 2.64308,3.7415 2.69643,6.38 -0.0183,2.701 -0.7861,4.8307 -2.30339,6.3892 -1.51734,1.5584 -3.67448,2.3536 -6.47143,2.3856 -3.75826,-0.2148 -6.57047,-1.6315 -8.43663,-4.2503 -1.86618,-2.6187 -3.05139,-5.1506 -3.55563,-7.5957 l -2.19371,0.5119 c 0.27421,1.9119 0.60327,4.0477 0.98717,6.4074 0.38389,2.3598 0.71295,4.002 0.98717,4.9267 0.35799,0.1874 0.83025,0.4159 1.41676,0.6856 0.58651,0.2696 1.33298,0.553 2.23941,0.85 0.879,0.2697 1.91796,0.5165 3.11689,0.7404 1.19891,0.2239 2.54865,0.3428 4.04922,0.3565 4.93125,-0.096 8.85249,-1.4396 11.76375,-4.031 2.9112,-2.5913 4.40109,-5.8544 4.46967,-9.7894 -0.16608,-4.037 -1.55238,-7.1325 -4.1589,-9.2867 -2.60657,-2.154 -5.43706,-3.9334 -8.49147,-5.338 -2.91429,-1.3969 -5.18417,-2.899 -6.80963,-4.5062 -1.62548,-1.6072 -2.45117,-3.7125 -2.47706,-6.3161 -0.0137,-2.0596 0.63526,-3.8816 1.94692,-5.4659 1.31164,-1.5843 3.36824,-2.4192 6.1698,-2.5045 3.10468,0.1143 5.34104,1.1472 6.70908,3.0986 1.36799,1.9515 2.32469,4.1361 2.8701,6.5537 z"
         id="path3169"
         style="font-variant:normal;font-stretch:normal;fill:#666666;font-family:Minion Pro;-inkscape-font-specification:Minion Pro" />
      <path
         d="m 750.84957,1064.1393 c -0.28947,-2.276 -0.53322,-4.2137 -0.73123,-5.8134 -0.19808,-1.5995 -0.3687,-3.0254 -0.51187,-4.2777 -1.38937,-0.4539 -2.85184,-0.8439 -4.38741,-1.17 -1.53562,-0.3259 -3.14433,-0.4965 -4.82615,-0.5118 -4.75457,0.1036 -8.44426,1.3955 -11.06908,3.8755 -2.62484,2.4802 -3.95629,5.527 -3.99437,9.1405 0.21022,4.0553 1.63613,7.1692 4.27772,9.3415 2.64158,2.1724 5.23746,3.8603 7.78766,5.0638 2.79543,1.3955 5.06531,2.9006 6.80963,4.5154 1.74428,1.6148 2.64309,3.7415 2.69643,6.38 -0.0183,2.701 -0.7861,4.8307 -2.30339,6.3892 -1.51734,1.5584 -3.67448,2.3536 -6.47143,2.3856 -3.75826,-0.2148 -6.57047,-1.6315 -8.43663,-4.2503 -1.86618,-2.6187 -3.05139,-5.1506 -3.55563,-7.5957 l -2.19371,0.5119 c 0.27421,1.9119 0.60327,4.0477 0.98717,6.4074 0.38389,2.3598 0.71295,4.002 0.98717,4.9267 0.35799,0.1874 0.83025,0.4159 1.41677,0.6856 0.5865,0.2696 1.33297,0.553 2.2394,0.85 0.879,0.2697 1.91796,0.5165 3.1169,0.7404 1.1989,0.2239 2.54864,0.3428 4.04921,0.3565 4.93125,-0.096 8.85249,-1.4396 11.76375,-4.031 2.9112,-2.5913 4.40109,-5.8544 4.46967,-9.7894 -0.16608,-4.037 -1.55238,-7.1325 -4.1589,-9.2867 -2.60657,-2.154 -5.43706,-3.9334 -8.49147,-5.338 -2.91429,-1.3969 -5.18416,-2.899 -6.80963,-4.5062 -1.62548,-1.6072 -2.45117,-3.7125 -2.47706,-6.3161 -0.0137,-2.0596 0.63526,-3.8816 1.94692,-5.4659 1.31164,-1.5843 3.36824,-2.4192 6.1698,-2.5045 3.10468,0.1143 5.34104,1.1472 6.70908,3.0986 1.36799,1.9515 2.32469,4.1361 2.8701,6.5537 z"
         id="path3171"
         style="font-variant:normal;font-stretch:normal;fill:#666666;font-family:Minion Pro;-inkscape-font-specification:Minion Pro" />
      <path
         d="m 793.45248,1089.1475 c -0.52257,1.4427 -1.10451,2.762 -1.74583,3.9578 -0.64139,1.1959 -1.27817,2.1678 -1.91035,2.9158 -0.74041,0.9354 -1.78242,1.5874 -3.12603,1.9561 -1.34367,0.3687 -3.37285,0.5454 -6.08753,0.5301 -1.82964,0.02 -3.38046,-0.02 -4.65249,-0.1188 -1.27206,-0.099 -2.25618,-0.3763 -2.95236,-0.8318 -0.64899,-0.4159 -1.10601,-1.0831 -1.37107,-2.0017 -0.26509,-0.9186 -0.39305,-2.2257 -0.38389,-3.9213 l 0,-13.8203 6.94673,0 c 3.04984,-0.09 5.03026,0.1996 5.94129,0.8683 0.91097,0.6688 1.53861,2.2562 1.88293,4.7622 l 2.12058,0 0,-13.9666 -2.12058,0 c -0.2971,2.372 -0.89122,3.8984 -1.78239,4.5793 -0.89122,0.681 -2.92953,0.9827 -6.11495,0.905 l -6.87361,0 0,-16.6722 c -0.0412,-1.0252 0.0777,-1.6803 0.35647,-1.9652 0.27877,-0.2848 0.9643,-0.4098 2.0566,-0.3748 l 5.55739,0 c 2.58367,-0.012 4.49098,0.1402 5.72192,0.4571 1.23088,0.3169 2.07789,0.8714 2.54104,1.6635 0.47222,0.7389 0.89878,1.5829 1.27966,2.5319 0.38082,0.9491 0.73425,2.177 1.06029,3.6836 l 2.12059,-0.2925 c -0.12039,-1.956 -0.24531,-3.9486 -0.37477,-5.9778 -0.12952,-2.0292 -0.1996,-3.5465 -0.21022,-4.552 l -32.6131,0 0,2.0475 c 2.75736,0.087 4.51842,0.5348 5.28318,1.3436 0.76474,0.809 1.09989,2.7742 1.00545,5.8956 l 0,29.1032 c 0.11424,2.8868 -0.26052,4.7545 -1.12428,5.6031 -0.86378,0.8485 -2.90209,1.3451 -6.11495,1.4899 l 0,2.0474 35.24554,0 c 0.3671,-1.3223 0.82108,-3.2296 1.36192,-5.7219 0.54078,-2.4923 0.93991,-4.4361 1.1974,-5.8316 z"
         id="path3173"
         style="font-variant:normal;font-stretch:normal;fill:#666666;font-family:Minion Pro;-inkscape-font-specification:Minion Pro" />
      <path
         d="m 849.78442,1053.4632 -17.25715,0 0,2.0475 c 2.5151,0.075 4.30358,0.4373 5.36544,1.0877 1.06177,0.6505 1.66199,1.7992 1.80067,3.446 0.14925,0.9765 0.27112,2.4055 0.36561,4.2868 0.0944,1.8815 0.14316,4.4987 0.14625,7.8517 l 0,17.9883 -0.21937,0 -30.56564,-36.708 -10.74916,0 0,2.0475 c 1.6788,0.1265 3.00111,0.3855 3.96696,0.7769 0.96583,0.3916 1.81284,1.0345 2.54104,1.9287 0.63677,0.7099 1.04505,1.4838 1.22482,2.3216 0.17975,0.838 0.25897,2.5259 0.23765,5.0638 l 0,16.0872 c -0.005,3.2906 -0.0503,5.923 -0.13711,7.8974 -0.0868,1.9743 -0.18739,3.5099 -0.30163,4.6067 -0.16759,1.752 -0.76476,2.9646 -1.79153,3.6379 -1.02678,0.6734 -2.57456,1.0451 -4.64334,1.1152 l 0,2.0474 17.33027,0 0,-2.0474 c -2.44508,-0.099 -4.1909,-0.486 -5.23747,-1.1609 -1.04659,-0.6748 -1.64072,-1.921 -1.78239,-3.7384 -0.11426,-1.0222 -0.21481,-2.506 -0.30163,-4.4514 -0.0869,-1.9454 -0.13255,-4.5809 -0.13711,-7.9065 l 0,-18.354 0.14625,0 31.15063,38.3167 2.26682,0 0,-29.4687 c -4e-5,-3.3485 0.0365,-5.9748 0.10969,-7.8791 0.0731,-1.9042 0.18276,-3.3972 0.32906,-4.4788 0.12792,-1.5417 0.67634,-2.6263 1.64527,-3.254 0.96884,-0.6276 2.46787,-0.981 4.4971,-1.0603 z"
         id="path3175"
         style="font-variant:normal;font-stretch:normal;fill:#666666;font-family:Minion Pro;-inkscape-font-specification:Minion Pro" />
      <path
         d="m 881.38821,1064.1393 c -0.28948,-2.276 -0.53322,-4.2137 -0.73124,-5.8134 -0.19807,-1.5995 -0.36869,-3.0254 -0.51186,-4.2777 -1.38938,-0.4539 -2.85185,-0.8439 -4.38741,-1.17 -1.53562,-0.3259 -3.14434,-0.4965 -4.82616,-0.5118 -4.75457,0.1036 -8.44425,1.3955 -11.06907,3.8755 -2.62484,2.4802 -3.9563,5.527 -3.99438,9.1405 0.21023,4.0553 1.63614,7.1692 4.27773,9.3415 2.64158,2.1724 5.23746,3.8603 7.78766,5.0638 2.79543,1.3955 5.0653,2.9006 6.80963,4.5154 1.74427,1.6148 2.64308,3.7415 2.69643,6.38 -0.0183,2.701 -0.78611,4.8307 -2.3034,6.3892 -1.51733,1.5584 -3.67447,2.3536 -6.47143,2.3856 -3.75826,-0.2148 -6.57046,-1.6315 -8.43663,-4.2503 -1.86618,-2.6187 -3.05139,-5.1506 -3.55563,-7.5957 l -2.1937,0.5119 c 0.27421,1.9119 0.60326,4.0477 0.98716,6.4074 0.3839,2.3598 0.71295,4.002 0.98717,4.9267 0.358,0.1874 0.83025,0.4159 1.41677,0.6856 0.58651,0.2696 1.33297,0.553 2.23941,0.85 0.879,0.2697 1.91796,0.5165 3.11689,0.7404 1.19891,0.2239 2.54865,0.3428 4.04922,0.3565 4.93124,-0.096 8.85249,-1.4396 11.76374,-4.031 2.9112,-2.5913 4.40109,-5.8544 4.46968,-9.7894 -0.16608,-4.037 -1.55238,-7.1325 -4.1589,-9.2867 -2.60658,-2.154 -5.43706,-3.9334 -8.49147,-5.338 -2.9143,-1.3969 -5.18417,-2.899 -6.80963,-4.5062 -1.62549,-1.6072 -2.45117,-3.7125 -2.47706,-6.3161 -0.0137,-2.0596 0.63525,-3.8816 1.94692,-5.4659 1.31164,-1.5843 3.36823,-2.4192 6.16979,-2.5045 3.10468,0.1143 5.34104,1.1472 6.70909,3.0986 1.36799,1.9515 2.32469,4.1361 2.87009,6.5537 z"
         id="path3177"
         style="font-variant:normal;font-stretch:normal;fill:#666666;font-family:Minion Pro;-inkscape-font-specification:Minion Pro" />
      <path
         d="m 931.08407,1088.1969 c -1.76111,3.6364 -3.79638,6.4181 -6.10582,8.3452 -2.30952,1.9271 -5.29539,2.8991 -8.95763,2.9158 -5.661,-0.1051 -10.24341,-2.2348 -13.74722,-6.3891 -3.50385,-4.1544 -5.30757,-9.7026 -5.41115,-16.6448 0.0168,-5.7554 1.61023,-10.7156 4.78045,-14.8806 3.1702,-4.165 7.81658,-6.3465 13.93918,-6.5446 3.92579,-0.03 7.04267,0.8166 9.35067,2.5411 2.30792,1.7245 3.94406,4.5093 4.90842,8.3543 l 2.12058,-0.585 c -0.21637,-1.8966 -0.44184,-3.6972 -0.6764,-5.402 -0.23464,-1.7046 -0.49667,-3.5601 -0.78607,-5.5665 -1.06491,-0.2422 -2.7376,-0.6169 -5.0181,-1.1243 -2.28058,-0.5072 -4.92217,-0.7906 -7.92477,-0.85 -8.30716,0.099 -15.03756,2.4238 -20.19123,6.9741 -5.15369,4.5505 -7.80747,10.7325 -7.96133,18.546 -0.014,3.9591 0.8996,7.7732 2.74078,11.4425 1.84117,3.6692 4.69389,6.6926 8.55816,9.07 3.86425,2.3774 8.824,3.6079 14.87929,3.6914 2.736,-0.052 5.38064,-0.3138 7.9339,-0.7861 2.55319,-0.4723 4.39346,-0.844 5.52083,-1.1151 0.68549,-1.3467 1.41672,-3.1139 2.1937,-5.3015 0.7769,-2.1876 1.43501,-4.1741 1.97434,-5.9596 z"
         id="path3179"
         style="font-variant:normal;font-stretch:normal;fill:#666666;font-family:Minion Pro;-inkscape-font-specification:Minion Pro" />
      <path
         d="m 988.05251,1053.4632 -19.08524,0 0,2.0475 c 2.75733,0.1341 4.51838,0.5972 5.28317,1.3893 0.76471,0.7923 1.09986,2.6447 1.00545,5.5574 l 0,11.846 -24.93512,0 0,-11.846 c -0.0914,-2.9173 0.23763,-4.7789 0.98716,-5.5848 0.7495,-0.8058 2.4679,-1.2598 5.15521,-1.3619 l 0,-2.0475 -18.93899,0 0,2.0475 c 2.89751,0.097 4.74388,0.5424 5.5391,1.3345 0.79521,0.7922 1.14255,2.663 1.04201,5.6122 l 0,29.5419 c 0.0975,2.9494 -0.24375,4.8201 -1.02372,5.6123 -0.78,0.7921 -2.58371,1.237 -5.41115,1.3345 l 0,2.0474 19.23149,0 0,-2.0474 c -2.89754,-0.1021 -4.7439,-0.5561 -5.53911,-1.362 -0.79523,-0.8058 -1.14257,-2.6674 -1.042,-5.5848 l 0,-14.5515 24.93512,0 0,14.5515 c 0.1066,2.9494 -0.25293,4.8201 -1.07857,5.6123 -0.82573,0.7921 -2.75741,1.237 -5.79504,1.3345 l 0,2.0474 19.5971,0 0,-2.0474 c -2.86253,-0.097 -4.68757,-0.5424 -5.47512,-1.3345 -0.78765,-0.7922 -1.13194,-2.6629 -1.03287,-5.6123 l 0,-29.5419 c -0.10059,-2.9127 0.24675,-4.7651 1.04201,-5.5574 0.79517,-0.7921 2.64154,-1.2552 5.53911,-1.3893 z"
         id="path3181"
         style="font-variant:normal;font-stretch:normal;fill:#666666;font-family:Minion Pro;-inkscape-font-specification:Minion Pro" />
      <path
         d="m 1039.9435,1100.9935 0,-2.0474 c -2.2729,-0.1067 -3.9243,-0.6063 -4.9541,-1.4991 -1.0299,-0.8927 -2.0597,-2.8548 -3.0895,-5.8864 -2.3521,-6.4181 -4.7226,-12.9779 -7.1112,-19.6794 -2.3888,-6.7014 -4.7226,-13.2063 -7.0016,-19.5148 l -2.2668,0.6581 -15.1366,38.3167 c -1.13648,3.123 -2.22724,5.1217 -3.27229,5.9962 -1.04506,0.8744 -2.68425,1.4106 -4.91756,1.6087 l 0,2.0474 15.94095,0 0,-2.0474 c -2.7193,-0.1798 -4.3737,-0.6429 -4.9633,-1.3894 -0.5895,-0.7464 -0.4707,-2.2333 0.3565,-4.4605 0.4768,-1.531 0.9856,-3.0758 1.5265,-4.6342 0.5407,-1.5584 1.1044,-3.158 1.6909,-4.7987 l 15.5754,0 c 0.8119,2.2424 1.5645,4.3203 2.2576,6.2337 0.6932,1.9134 1.2812,3.5892 1.7641,5.0273 0.5241,1.3787 0.4997,2.3323 -0.073,2.8609 -0.5728,0.5287 -1.9865,0.9156 -4.2411,1.1609 l 0,2.0474 z m -18.6465,-20.4746 -13.4547,0 c 1.1319,-3.0117 2.2683,-6.092 3.4094,-9.2409 1.141,-3.1489 2.2957,-6.2841 3.4642,-9.4056 l 0.1462,0 z"
         id="path3183"
         style="font-variant:normal;font-stretch:normal;fill:#666666;font-family:Minion Pro;-inkscape-font-specification:Minion Pro" />
      <path
         d="m 1077.34,1064.2124 c -0.1539,-1.8189 -0.3032,-3.7201 -0.4479,-5.7036 -0.1447,-1.9835 -0.2392,-3.6653 -0.2833,-5.0456 l -32.1744,0 0,2.0475 c 2.7223,0.094 4.4621,0.5454 5.2192,1.3528 0.7571,0.8074 1.0892,2.7208 0.9963,5.7402 l 0,29.1763 c 0.098,3.0224 -0.2437,4.948 -1.0237,5.7767 -0.78,0.8288 -2.5837,1.2919 -5.4112,1.3894 l 0,2.0474 19.8896,0 0,-2.0474 c -3.2128,-0.097 -5.2512,-0.5606 -6.1149,-1.3894 -0.8638,-0.8287 -1.2386,-2.7543 -1.1243,-5.7767 l 0,-13.2354 7.5317,0 c 3.1855,-0.072 5.2238,0.2727 6.115,1.0329 0.8912,0.7602 1.4853,2.3658 1.7824,4.817 l 2.1206,0 0,-14.1129 -2.1206,0 c -0.2971,2.305 -0.8912,3.801 -1.7824,4.488 -0.8912,0.6871 -2.9295,0.9948 -6.115,0.9232 l -7.5317,0 0,-17.4034 c -0.037,-1.0252 0.091,-1.6803 0.3839,-1.9652 0.2925,-0.2848 0.9689,-0.4098 2.0292,-0.3748 l 5.5574,0 c 2.701,-0.015 4.6296,0.1798 5.7859,0.585 1.1562,0.4053 2.0063,1.1122 2.5502,2.1206 0.46,0.7008 0.8378,1.493 1.1334,2.3765 0.2955,0.8836 0.6002,2.0414 0.914,3.4734 z"
         id="path3185"
         style="font-variant:normal;font-stretch:normal;fill:#666666;font-family:Minion Pro;-inkscape-font-specification:Minion Pro" />
      <path
         d="m 1123.2838,1064.578 c -0.2209,-2.1845 -0.4007,-4.4513 -0.5393,-6.8005 -0.1387,-2.349 -0.227,-4.3965 -0.2651,-6.1424 l -1.5356,0 c -0.5088,0.6841 -1.0085,1.1625 -1.499,1.4351 -0.4906,0.2727 -1.2096,0.4037 -2.1571,0.393 l -28.8838,0 c -0.9994,0.029 -1.7977,-0.065 -2.3948,-0.2833 -0.5972,-0.2178 -1.1395,-0.7327 -1.627,-1.5448 l -1.4625,0 c -0.078,2.0338 -0.1965,4.1818 -0.3565,6.4441 -0.1599,2.2623 -0.3336,4.5017 -0.521,6.7182 l 2.1206,0 c 0.4266,-1.6041 0.8165,-2.9478 1.17,-4.031 0.3534,-1.0831 0.7434,-1.9331 1.17,-2.5501 0.3899,-0.7983 1.1638,-1.3772 2.3216,-1.7367 1.1578,-0.3595 3.2114,-0.5362 6.1607,-0.5302 l 4.5336,0 0,36.0499 c 0.1143,2.7894 -0.2605,4.6144 -1.1242,5.4752 -0.8638,0.8607 -2.9021,1.3512 -6.115,1.4716 l 0,2.0474 20.9133,0 0,-2.0474 c -3.318,-0.1204 -5.4203,-0.6109 -6.3069,-1.4716 -0.8866,-0.8608 -1.2705,-2.6858 -1.1517,-5.4752 l 0,-36.0499 5.1187,0 c 2.6857,-0.012 4.5534,0.1585 5.6031,0.5119 1.0496,0.3535 1.8387,0.9628 2.3674,1.8281 0.4006,0.5637 0.7875,1.3559 1.1608,2.3765 0.3732,1.0207 0.7419,2.3979 1.106,4.1315 z"
         id="path3187"
         style="font-variant:normal;font-stretch:normal;fill:#666666;font-family:Minion Pro;-inkscape-font-specification:Minion Pro" />
      <path
         d="m 1162.931,1089.1475 c -0.5225,1.4427 -1.1045,2.762 -1.7458,3.9578 -0.6414,1.1959 -1.2782,2.1678 -1.9104,2.9158 -0.7404,0.9354 -1.7824,1.5874 -3.126,1.9561 -1.3437,0.3687 -3.3728,0.5454 -6.0875,0.5301 -1.8297,0.02 -3.3805,-0.02 -4.6525,-0.1188 -1.2721,-0.099 -2.2562,-0.3763 -2.9524,-0.8318 -0.649,-0.4159 -1.106,-1.0831 -1.371,-2.0017 -0.2651,-0.9186 -0.3931,-2.2257 -0.3839,-3.9213 l 0,-13.8203 6.9467,0 c 3.0498,-0.09 5.0303,0.1996 5.9413,0.8683 0.911,0.6688 1.5386,2.2562 1.8829,4.7622 l 2.1206,0 0,-13.9666 -2.1206,0 c -0.2971,2.372 -0.8912,3.8984 -1.7824,4.5793 -0.8912,0.681 -2.9295,0.9827 -6.1149,0.905 l -6.8736,0 0,-16.6722 c -0.041,-1.0252 0.078,-1.6803 0.3564,-1.9652 0.2788,-0.2848 0.9643,-0.4098 2.0566,-0.3748 l 5.5574,0 c 2.5837,-0.012 4.491,0.1402 5.722,0.4571 1.2308,0.3169 2.0778,0.8714 2.541,1.6635 0.4722,0.7389 0.8988,1.5829 1.2797,2.5319 0.3808,0.9491 0.7342,2.177 1.0602,3.6836 l 2.1206,-0.2925 c -0.1204,-1.956 -0.2453,-3.9486 -0.3747,-5.9778 -0.1296,-2.0292 -0.1996,-3.5465 -0.2103,-4.552 l -32.6131,0 0,2.0475 c 2.7574,0.087 4.5185,0.5348 5.2832,1.3436 0.7648,0.809 1.0999,2.7742 1.0055,5.8956 l 0,29.1032 c 0.1142,2.8868 -0.2605,4.7545 -1.1243,5.6031 -0.8638,0.8485 -2.9021,1.3451 -6.115,1.4899 l 0,2.0474 35.2456,0 c 0.3671,-1.3223 0.8211,-3.2296 1.3619,-5.7219 0.5408,-2.4923 0.9399,-4.4361 1.1974,-5.8316 z"
         id="path3189"
         style="font-variant:normal;font-stretch:normal;fill:#666666;font-family:Minion Pro;-inkscape-font-specification:Minion Pro" />
      <path
         d="m 1219.263,1053.4632 -17.2572,0 0,2.0475 c 2.5151,0.075 4.3036,0.4373 5.3654,1.0877 1.0618,0.6505 1.662,1.7992 1.8007,3.446 0.1493,0.9765 0.2711,2.4055 0.3656,4.2868 0.094,1.8815 0.1432,4.4987 0.1463,7.8517 l 0,17.9883 -0.2194,0 -30.5656,-36.708 -10.7492,0 0,2.0475 c 1.6788,0.1265 3.0011,0.3855 3.967,0.7769 0.9658,0.3916 1.8128,1.0345 2.541,1.9287 0.6368,0.7099 1.045,1.4838 1.2248,2.3216 0.1798,0.838 0.259,2.5259 0.2377,5.0638 l 0,16.0872 c 0,3.2906 -0.05,5.923 -0.1371,7.8974 -0.087,1.9743 -0.1874,3.5099 -0.3017,4.6067 -0.1676,1.752 -0.7647,2.9646 -1.7915,3.6379 -1.0268,0.6734 -2.5746,1.0451 -4.6433,1.1152 l 0,2.0474 17.3302,0 0,-2.0474 c -2.4451,-0.099 -4.1909,-0.486 -5.2374,-1.1609 -1.0466,-0.6748 -1.6408,-1.921 -1.7824,-3.7384 -0.1143,-1.0222 -0.2148,-2.506 -0.3017,-4.4514 -0.087,-1.9454 -0.1325,-4.5809 -0.1371,-7.9065 l 0,-18.354 0.1463,0 31.1506,38.3167 2.2668,0 0,-29.4687 c 0,-3.3485 0.037,-5.9748 0.1097,-7.8791 0.073,-1.9042 0.1828,-3.3972 0.3291,-4.4788 0.1279,-1.5417 0.6763,-2.6263 1.6453,-3.254 0.9688,-0.6276 2.4678,-0.981 4.4971,-1.0603 z"
         id="path3191"
         style="font-variant:normal;font-stretch:normal;fill:#666666;font-family:Minion Pro;-inkscape-font-specification:Minion Pro" />
    </g>
    <g
       transform="translate(366.361,-203.397)"
       id="text5351-4"
       style="font-size:181.64437866px;font-style:normal;font-weight:normal;line-height:125%;letter-spacing:0px;word-spacing:0px;fill:#e40000;fill-opacity:1;stroke:none;font-family:Sans">
      <path
         d="m 688.52917,1253.3937 0,-5.086 c -7.5837,-0.2535 -12.30639,-1.6083 -14.16808,-4.0642 -1.86197,-2.456 -2.77017,-8.3064 -2.72463,-17.5512 l -1.63478,-65.7544 c -0.55263,-8.9496 0.14366,-14.5275 2.08889,-16.7338 1.94494,-2.2061 6.819,-3.47 14.62218,-3.7918 l 0,-5.0859 -30.87914,0 -42.14096,91.0026 -41.41438,-91.0026 -29.7893,0 0,5.0859 c 7.99223,0.3218 12.89656,1.9036 14.71301,4.7454 1.81639,2.8421 2.17967,9.9185 1.08985,21.2294 l -2.54299,37.7816 c -0.63198,9.3319 -1.22989,16.4613 -1.79372,21.3883 -0.56386,4.9271 -1.11636,8.8778 -1.65748,11.8522 -0.52981,3.7236 -1.92239,6.3575 -4.17776,7.9014 -2.25541,1.544 -6.00934,2.543 -11.26181,2.9971 l 0,5.086 42.32259,0 0,-5.086 c -5.99801,-0.4806 -10.25903,-1.4266 -12.78306,-2.8382 -2.5241,-1.4115 -3.83343,-4.2193 -3.928,-8.4236 -0.10221,-3.4928 -0.12492,-7.5419 -0.0681,-12.1473 0.0567,-4.6054 0.26108,-10.6071 0.61304,-18.0053 l 2.72463,-51.768 0.36329,0 40.68781,96.9969 3.63285,0 44.32065,-99.5399 0.72657,0 0.72657,74.11 c 0.28748,9.2448 -0.42395,15.0952 -2.13429,17.5512 -1.71059,2.4559 -6.14568,3.8107 -13.30528,4.0642 l 0,5.086 z"
         id="path3162"
         style="font-variant:normal;font-stretch:normal;fill:#e40000;font-family:Minion Pro;-inkscape-font-specification:Minion Pro" />
    </g>
    <rect
       width="618.57141"
       height="581.42859"
       x="-535.7121"
       y="687.66357"
       transform="matrix(0.920216,-0.39141,0.39141,0.920216,367.112,-199.196)"
       id="rect2996"
       style="fill:url(#linearGradient4582);fill-opacity:1;fill-rule:evenodd;stroke:none;filter:url(#filter4188)" />
  </g>
</svg>
